<svg width="20" height="19" viewBox="0 0 20 19" fill="none" xmlns="http://www.w3.org/2000/svg">
<path d="M9.08587 8.30035V4.64321H10.9144V8.30035H14.5716V10.1289H10.9144V13.7861H9.08587V10.1289H5.42873V8.30035H9.08587ZM10.0002 18.3575C4.95056 18.3575 0.8573 14.2642 0.8573 9.21464C0.8573 4.16504 4.95056 0.0717773 10.0002 0.0717773C15.0498 0.0717773 19.143 4.16504 19.143 9.21464C19.143 14.2642 15.0498 18.3575 10.0002 18.3575ZM10.0002 16.5289C11.94 16.5289 13.8004 15.7583 15.1721 14.3866C16.5438 13.0149 17.3144 11.1545 17.3144 9.21464C17.3144 7.27477 16.5438 5.41435 15.1721 4.04265C13.8004 2.67096 11.94 1.90035 10.0002 1.90035C8.06029 1.90035 6.19987 2.67096 4.82818 4.04265C3.45648 5.41435 2.68587 7.27477 2.68587 9.21464C2.68587 11.1545 3.45648 13.0149 4.82818 14.3866C6.19987 15.7583 8.06029 16.5289 10.0002 16.5289Z" fill="#FAFBFC"/>
</svg>
