<svg width="14" height="15" viewBox="0 0 14 15" fill="none" xmlns="http://www.w3.org/2000/svg">
<path d="M6.33331 6.83301V4.16634H7.66665V6.83301H10.3333V8.16634H7.66665V10.833H6.33331V8.16634H3.66665V6.83301H6.33331ZM6.99998 14.1663C3.31798 14.1663 0.333313 11.1817 0.333313 7.49967C0.333313 3.81767 3.31798 0.833008 6.99998 0.833008C10.682 0.833008 13.6666 3.81767 13.6666 7.49967C13.6666 11.1817 10.682 14.1663 6.99998 14.1663ZM6.99998 12.833C8.41447 12.833 9.77102 12.2711 10.7712 11.2709C11.7714 10.2707 12.3333 8.91416 12.3333 7.49967C12.3333 6.08519 11.7714 4.72863 10.7712 3.72844C9.77102 2.72824 8.41447 2.16634 6.99998 2.16634C5.58549 2.16634 4.22894 2.72824 3.22874 3.72844C2.22855 4.72863 1.66665 6.08519 1.66665 7.49967C1.66665 8.91416 2.22855 10.2707 3.22874 11.2709C4.22894 12.2711 5.58549 12.833 6.99998 12.833V12.833Z" fill="black"/>
</svg>
