<svg width="12" height="12" viewBox="0 0 12 12" fill="none" xmlns="http://www.w3.org/2000/svg">
<path d="M8.5 3H11V4H10V10.5C10 10.6326 9.94732 10.7598 9.85355 10.8536C9.75979 10.9473 9.63261 11 9.5 11H2.5C2.36739 11 2.24021 10.9473 2.14645 10.8536C2.05268 10.7598 2 10.6326 2 10.5V4H1V3H3.5V1.5C3.5 1.36739 3.55268 1.24021 3.64645 1.14645C3.74021 1.05268 3.86739 1 4 1H8C8.13261 1 8.25979 1.05268 8.35355 1.14645C8.44732 1.24021 8.5 1.36739 8.5 1.5V3ZM9 4H3V10H9V4ZM4.5 5.5H5.5V8.5H4.5V5.5ZM6.5 5.5H7.5V8.5H6.5V5.5ZM4.5 2V3H7.5V2H4.5Z" fill="#DD5147"/>
</svg>
