<svg width="24" height="24" viewBox="0 0 24 24" fill="none" xmlns="http://www.w3.org/2000/svg">
<path fill-rule="evenodd" clip-rule="evenodd" d="M11.9702 5C14.9914 5 17.4405 7.44911 17.4405 10.4702C17.4405 12.3358 15.876 15.1988 12.7471 19.0592C12.7033 19.1133 12.654 19.1626 12.5999 19.2064C12.2039 19.5274 11.6369 19.496 11.2785 19.1518L11.1934 19.0592L10.9046 18.7003C7.96821 15.0209 6.5 12.2775 6.5 10.4702C6.5 7.44911 8.94911 5 11.9702 5ZM11.9702 7.5C10.3134 7.5 8.97025 8.84315 8.97025 10.5C8.97025 12.1569 10.3134 13.5 11.9702 13.5C13.6271 13.5 14.9702 12.1569 14.9702 10.5C14.9702 8.84315 13.6271 7.5 11.9702 7.5Z" fill="#0C5DFF"/>
</svg>
