<svg width="24" height="24" viewBox="0 0 24 24" fill="none" xmlns="http://www.w3.org/2000/svg">
<path fill-rule="evenodd" clip-rule="evenodd" d="M18 6C19.1046 6 20 6.89543 20 8V17C20 18.1046 19.1046 19 18 19H6C4.89543 19 4 18.1046 4 17V8C4 6.89543 4.89543 6 6 6H18ZM6 10.0252V16.8C6 16.9105 6.08954 17 6.2 17H17.8C17.9105 17 18 16.9105 18 16.8V10.0821C18 9.97165 17.9105 9.88211 17.8 9.88211C17.7536 9.88211 17.7086 9.89826 17.6728 9.92779L12.6422 14.0754C12.3048 14.3535 11.831 14.3775 11.4702 14.1482L11.3656 14.0718L6.32808 9.87155C6.24324 9.80081 6.11713 9.81225 6.04639 9.89708C6.01642 9.93303 6 9.97835 6 10.0252ZM16.3099 8H7.76007C7.64962 8 7.56007 8.08954 7.56007 8.2C7.56007 8.25933 7.58641 8.3156 7.63198 8.35359L11.8817 11.8978C11.9555 11.9594 12.0627 11.9597 12.137 11.8985L16.4371 8.35433C16.5223 8.28408 16.5345 8.15803 16.4642 8.0728C16.4262 8.0267 16.3696 8 16.3099 8Z" fill="#0C5DFF"/>
</svg>
