<svg width="14" height="15" viewBox="0 0 14 15" fill="none" xmlns="http://www.w3.org/2000/svg">
<path fill-rule="evenodd" clip-rule="evenodd" d="M7.00159 6.99998C10.4779 6.99998 12.6061 8.8285 13.3863 12.4856C13.5784 13.3858 13.0043 14.2712 12.1041 14.4633C11.9898 14.4877 11.8732 14.5 11.7563 14.5H2.24452C1.32404 14.5 0.577843 13.7538 0.577843 12.8333C0.577843 12.7162 0.590193 12.5994 0.614688 12.4848C1.39658 8.82825 3.52555 6.99998 7.00159 6.99998ZM7.00159 8.66665C4.4071 8.66665 2.94854 9.8573 2.29827 12.5949L2.24451 12.8333H11.7563L11.7027 12.5948C11.0537 9.85716 9.59602 8.66665 7.00159 8.66665ZM7 0.333313C8.61083 0.333313 9.91667 1.63915 9.91667 3.24998C9.91667 4.86081 8.61083 6.16665 7 6.16665C5.38917 6.16665 4.08333 4.86081 4.08333 3.24998C4.08333 1.63915 5.38917 0.333313 7 0.333313ZM7 1.99998C6.30964 1.99998 5.75 2.55962 5.75 3.24998C5.75 3.94034 6.30964 4.49998 7 4.49998C7.69036 4.49998 8.25 3.94034 8.25 3.24998C8.25 2.55962 7.69036 1.99998 7 1.99998Z" fill="#0C5DFF"/>
</svg>
