<svg width="20" height="20" viewBox="0 0 20 20" fill="none" xmlns="http://www.w3.org/2000/svg">
<path d="M9.99999 2.5C9.08333 2.5 8.33333 3.25 8.33333 4.16667C8.33333 5.08333 9.08333 5.83333 9.99999 5.83333C10.9167 5.83333 11.6667 5.08333 11.6667 4.16667C11.6667 3.25 10.9167 2.5 9.99999 2.5ZM9.99999 14.1667C9.08333 14.1667 8.33333 14.9167 8.33333 15.8333C8.33333 16.75 9.08333 17.5 9.99999 17.5C10.9167 17.5 11.6667 16.75 11.6667 15.8333C11.6667 14.9167 10.9167 14.1667 9.99999 14.1667ZM9.99999 8.33333C9.08333 8.33333 8.33333 9.08333 8.33333 10C8.33333 10.9167 9.08333 11.6667 9.99999 11.6667C10.9167 11.6667 11.6667 10.9167 11.6667 10C11.6667 9.08333 10.9167 8.33333 9.99999 8.33333Z" fill="#040921"/>
</svg>
